<?xml version="1.0" encoding="utf-8"?>
<!-- Generator: Adobe Illustrator 19.1.0, SVG Export Plug-In . SVG Version: 6.00 Build 0)  -->
<svg version="1.1" id="Layer_1" xmlns="http://www.w3.org/2000/svg" xmlns:xlink="http://www.w3.org/1999/xlink" x="0px" y="0px"
	 viewBox="0 0 40 40" style="enable-background:new 0 0 40 40;" xml:space="preserve">
<style type="text/css">
	.st0{display:none;}
	.st1{display:inline;fill:#0069AA;}
	.st2{fill:#0069AA;}
	.st3{display:inline;fill:#FFFFFF;}
	.st4{display:inline;}
	.st5{fill:#FFFFFF;}
</style>
<g id="phone_icon" class="st0">
	<path class="st1" d="M30.306,31.83v-0.007l-3.813-6.445c-0.292-0.5-0.926-0.652-1.417-0.364l-2.271,1.346l0.187,0.314
		c-1.006,0.452-1.898-0.569-3.481-2.714l-3.252-5.49c-0.643-1.404-1.15-2.83-0.174-3.519l0.104,0.178l2.271-1.342v-0.005
		c0.521-0.308,0.645-0.95,0.363-1.423v-0.004L15.01,5.91c-0.291-0.499-0.926-0.654-1.416-0.364l-2.269,1.346l0.139,0.231
		c-1.258,1.034-4.402,5.919,1.836,16.755c6.475,11.246,12.645,11.176,14.21,10.448l0.159,0.273l2.272-1.341v-0.003
		C30.461,32.946,30.583,32.305,30.306,31.83z"/>
</g>
<g id="emai_icon" class="st0">
	<path class="st1" d="M32.233,31.701c0.669,0,1.249-0.221,1.742-0.658l-8.437-8.439c-0.204,0.145-0.399,0.286-0.585,0.42
		c-0.632,0.465-1.144,0.829-1.537,1.089c-0.394,0.26-0.918,0.525-1.571,0.797c-0.654,0.271-1.264,0.407-1.829,0.407h-0.032
		c-0.566,0-1.175-0.136-1.829-0.407c-0.654-0.271-1.178-0.537-1.571-0.797c-0.393-0.26-0.905-0.624-1.537-1.089
		c-0.176-0.129-0.372-0.271-0.583-0.422l-8.44,8.44c0.493,0.436,1.073,0.658,1.744,0.658H32.233z M32.233,31.701"/>
	<path class="st1" d="M6.786,17.292c-0.632-0.422-1.191-0.904-1.679-1.446v12.839l7.438-7.438
		C11.057,20.207,9.139,18.89,6.786,17.292L6.786,17.292z M6.786,17.292"/>
	<path class="st1" d="M33.23,17.292c-2.264,1.532-4.187,2.851-5.772,3.957l7.435,7.435V15.845
		C34.416,16.377,33.862,16.858,33.23,17.292L33.23,17.292z M33.23,17.292"/>
	<path class="st1" d="M32.233,8.299H7.767c-0.853,0-1.511,0.288-1.97,0.865c-0.46,0.575-0.69,1.296-0.69,2.16
		c0,0.698,0.305,1.455,0.915,2.269c0.609,0.814,1.257,1.454,1.944,1.92c0.376,0.265,1.512,1.055,3.408,2.369
		c1.023,0.708,1.912,1.327,2.678,1.86c0.651,0.454,1.214,0.847,1.678,1.173c0.053,0.037,0.136,0.097,0.247,0.176
		c0.12,0.086,0.272,0.195,0.459,0.331c0.36,0.26,0.659,0.47,0.897,0.63c0.239,0.162,0.527,0.341,0.865,0.541
		c0.338,0.199,0.657,0.349,0.956,0.448c0.299,0.1,0.575,0.15,0.831,0.15h0.032c0.255,0,0.533-0.05,0.832-0.15
		c0.299-0.099,0.617-0.249,0.955-0.448c0.338-0.2,0.626-0.379,0.865-0.541c0.239-0.16,0.538-0.37,0.899-0.63
		c0.186-0.136,0.338-0.245,0.458-0.331c0.111-0.079,0.195-0.139,0.249-0.176c0.36-0.252,0.924-0.643,1.682-1.17
		c1.377-0.957,3.406-2.366,6.095-4.233c0.81-0.566,1.485-1.247,2.028-2.044c0.543-0.798,0.815-1.635,0.815-2.51
		c0-0.732-0.264-1.357-0.79-1.879C33.578,8.559,32.954,8.299,32.233,8.299L32.233,8.299z M32.233,8.299"/>
</g>
<g id="existing_customer_icon">
	<g>
		<path class="st2" d="M20,20.867c3.631,0,6.575-3.446,6.575-7.696c0-5.894-2.944-7.696-6.575-7.696
			c-3.632,0-6.576,1.802-6.576,7.696C13.425,17.421,16.369,20.867,20,20.867L20,20.867z M20,20.867"/>
		<path class="st2" d="M34.52,32.194l-3.317-7.473c-0.151-0.342-0.418-0.626-0.75-0.798l-5.148-2.68
			c-0.113-0.059-0.251-0.048-0.353,0.03c-1.456,1.101-3.168,1.683-4.951,1.683c-1.783,0-3.495-0.582-4.951-1.683
			c-0.102-0.077-0.24-0.089-0.353-0.03l-5.148,2.68c-0.332,0.173-0.598,0.456-0.75,0.798L5.48,32.194
			c-0.229,0.515-0.182,1.104,0.125,1.577c0.307,0.473,0.827,0.755,1.39,0.755h26.008c0.564,0,1.083-0.282,1.391-0.755
			C34.701,33.299,34.749,32.709,34.52,32.194L34.52,32.194z M34.52,32.194"/>
	</g>
</g>
<g id="emai_icon_1_" class="st0">
	<path class="st3" d="M32.233,31.701c0.669,0,1.249-0.221,1.742-0.658l-8.437-8.439c-0.204,0.145-0.399,0.286-0.585,0.42
		c-0.632,0.465-1.144,0.829-1.537,1.089c-0.394,0.26-0.918,0.525-1.571,0.797c-0.654,0.271-1.264,0.407-1.829,0.407h-0.032
		c-0.566,0-1.175-0.136-1.829-0.407c-0.654-0.271-1.178-0.537-1.571-0.797c-0.393-0.26-0.905-0.624-1.537-1.089
		c-0.176-0.129-0.372-0.271-0.583-0.422l-8.44,8.44c0.493,0.436,1.073,0.658,1.744,0.658H32.233z M32.233,31.701"/>
	<path class="st3" d="M6.786,17.292c-0.632-0.422-1.191-0.904-1.679-1.446v12.839l7.438-7.438
		C11.057,20.207,9.139,18.89,6.786,17.292L6.786,17.292z M6.786,17.292"/>
	<path class="st3" d="M33.23,17.292c-2.264,1.532-4.187,2.851-5.772,3.957l7.435,7.435V15.845
		C34.416,16.377,33.862,16.858,33.23,17.292L33.23,17.292z M33.23,17.292"/>
	<path class="st3" d="M32.233,8.299H7.767c-0.853,0-1.511,0.288-1.97,0.865c-0.46,0.575-0.69,1.296-0.69,2.16
		c0,0.698,0.305,1.455,0.915,2.269c0.609,0.814,1.257,1.454,1.944,1.92c0.376,0.265,1.512,1.055,3.408,2.369
		c1.023,0.708,1.912,1.327,2.678,1.86c0.651,0.454,1.214,0.847,1.678,1.173c0.053,0.037,0.136,0.097,0.247,0.176
		c0.12,0.086,0.272,0.195,0.459,0.331c0.36,0.26,0.659,0.47,0.897,0.63c0.239,0.162,0.527,0.341,0.865,0.541
		c0.338,0.199,0.657,0.349,0.956,0.448c0.299,0.1,0.575,0.15,0.831,0.15h0.032c0.255,0,0.533-0.05,0.832-0.15
		c0.299-0.099,0.617-0.249,0.955-0.448c0.338-0.2,0.626-0.379,0.865-0.541c0.239-0.16,0.538-0.37,0.899-0.63
		c0.186-0.136,0.338-0.245,0.458-0.331c0.111-0.079,0.195-0.139,0.249-0.176c0.36-0.252,0.924-0.643,1.682-1.17
		c1.377-0.957,3.406-2.366,6.095-4.233c0.81-0.566,1.485-1.247,2.028-2.044c0.543-0.798,0.815-1.635,0.815-2.51
		c0-0.732-0.264-1.357-0.79-1.879C33.578,8.559,32.954,8.299,32.233,8.299L32.233,8.299z M32.233,8.299"/>
</g>
<g id="existing_customer_icon_1_" class="st0">
	<g class="st4">
		<path class="st5" d="M20,20.867c3.631,0,6.575-3.446,6.575-7.696c0-5.894-2.944-7.696-6.575-7.696
			c-3.632,0-6.576,1.802-6.576,7.696C13.425,17.421,16.369,20.867,20,20.867L20,20.867z M20,20.867"/>
		<path class="st5" d="M34.52,32.194l-3.317-7.473c-0.151-0.342-0.418-0.626-0.75-0.798l-5.148-2.68
			c-0.113-0.059-0.251-0.048-0.353,0.03c-1.456,1.101-3.168,1.683-4.951,1.683c-1.783,0-3.495-0.582-4.951-1.683
			c-0.102-0.077-0.24-0.089-0.353-0.03l-5.148,2.68c-0.332,0.173-0.598,0.456-0.75,0.798L5.48,32.194
			c-0.229,0.515-0.182,1.104,0.125,1.577c0.307,0.473,0.827,0.755,1.39,0.755h26.008c0.564,0,1.083-0.282,1.391-0.755
			C34.701,33.299,34.749,32.709,34.52,32.194L34.52,32.194z M34.52,32.194"/>
	</g>
</g>
</svg>
